<?xml version="1.0" encoding="utf-8"?>
<!-- Generator: Adobe Illustrator 26.3.1, SVG Export Plug-In . SVG Version: 6.00 Build 0)  -->
<svg version="1.1" id="Layer_1" xmlns="http://www.w3.org/2000/svg" xmlns:xlink="http://www.w3.org/1999/xlink" x="0px" y="0px"
	 viewBox="0 0 173 24" style="enable-background:new 0 0 173 24;" xml:space="preserve">
<style type="text/css">
	.st0{fill:#FFFFFF;}
</style>
<path class="st0" d="M11.5,0.6c1.1,0,2.1,0.1,2.9,0.3c0.9,0.2,1.6,0.4,2.2,0.7c0.6,0.3,1.2,0.6,1.6,0.9c0.4,0.3,0.7,0.6,1,0.8
	l-1.5,3.4c-0.1-0.2-0.4-0.5-0.8-0.7c-0.4-0.3-0.9-0.6-1.4-0.8c-0.5-0.3-1.2-0.5-1.9-0.7c-0.7-0.2-1.4-0.3-2.2-0.3
	c-1,0-1.9,0.2-2.8,0.5C7.8,5,7.1,5.5,6.4,6.1C5.8,6.7,5.3,7.6,4.9,8.5c-0.4,1-0.6,2.1-0.6,3.4c0,1.2,0.2,2.3,0.5,3.3
	c0.4,1,0.9,1.8,1.5,2.5c0.7,0.7,1.4,1.2,2.3,1.6c0.9,0.4,1.9,0.5,3,0.5c1.5,0,2.7-0.3,3.7-0.8c1-0.6,1.9-1.2,2.6-1.9l1.5,3.1
	c-0.3,0.3-0.7,0.7-1.2,1.1c-0.4,0.4-1,0.7-1.7,1c-0.6,0.3-1.4,0.5-2.2,0.7c-0.9,0.2-1.8,0.3-2.9,0.3c-1.6,0-3.1-0.3-4.5-0.8
	c-1.4-0.5-2.6-1.3-3.6-2.3s-1.8-2.2-2.4-3.6C0.3,15.3,0,13.7,0,12s0.3-3.3,0.9-4.7c0.6-1.4,1.4-2.6,2.4-3.6S5.6,1.9,7,1.4
	C8.4,0.9,9.9,0.6,11.5,0.6z M26.5,0.9v8.9h0.1c0.4-0.8,1-1.5,1.8-1.9c0.8-0.5,1.7-0.7,2.8-0.7c1.1,0,2,0.2,2.8,0.5
	c0.7,0.3,1.3,0.8,1.7,1.4c0.4,0.6,0.7,1.3,0.9,2.1c0.2,0.8,0.3,1.7,0.3,2.6V23h-4.1v-8.3c0-0.6,0-1.1-0.1-1.6
	c-0.1-0.5-0.2-0.9-0.4-1.3c-0.2-0.4-0.5-0.7-0.8-0.9c-0.4-0.2-0.8-0.3-1.4-0.3c-0.6,0-1.2,0.1-1.6,0.4c-0.4,0.2-0.8,0.6-1.1,1
	c-0.3,0.4-0.4,0.9-0.6,1.5c-0.1,0.6-0.2,1.2-0.2,1.8V23h-4.1V0.9H26.5z M45.9,13.8l3.7-0.3v-0.4c0-1-0.3-1.7-0.9-2.2
	c-0.6-0.5-1.4-0.7-2.5-0.7c-1,0-1.9,0.1-2.7,0.4c-0.8,0.3-1.4,0.6-1.7,0.8l-1.2-2.6c0.6-0.4,1.4-0.7,2.5-1.1c1-0.4,2.2-0.5,3.6-0.5
	c2.4,0,4.2,0.6,5.4,1.7c1.2,1.1,1.8,2.8,1.8,5.2V23h-3.9l-0.1-1.8c-0.3,0.6-0.9,1.1-1.8,1.5c-0.8,0.4-1.8,0.6-3,0.6
	c-0.7,0-1.5-0.1-2.1-0.3c-0.7-0.2-1.2-0.5-1.7-0.9c-0.5-0.4-0.9-0.9-1.2-1.5c-0.3-0.6-0.4-1.3-0.4-2.1c0-0.8,0.2-1.5,0.5-2
	c0.4-0.6,0.8-1,1.4-1.4c0.6-0.4,1.3-0.7,2-0.9C44.4,14,45.1,13.8,45.9,13.8z M46.3,20.6c0.8,0,1.5-0.2,2-0.5c0.6-0.4,1-0.8,1.3-1.2
	V16l-2.8,0.2c-2.2,0.1-3.2,0.9-3.2,2.2c0,0.7,0.2,1.2,0.7,1.6C44.8,20.4,45.5,20.6,46.3,20.6z M61.7,7.5l0,2.3h0.1
	c0.4-0.8,1-1.5,1.8-1.9c0.8-0.5,1.7-0.7,2.8-0.7c1.1,0,2,0.2,2.8,0.5c0.7,0.3,1.3,0.8,1.7,1.4c0.4,0.6,0.7,1.3,0.9,2.1
	c0.2,0.8,0.3,1.7,0.3,2.6V23h-4.1v-8.3c0-0.6,0-1.1-0.1-1.6c-0.1-0.5-0.2-0.9-0.4-1.3c-0.2-0.4-0.5-0.7-0.8-0.9
	c-0.4-0.2-0.8-0.3-1.4-0.3c-0.6,0-1.2,0.1-1.6,0.4c-0.4,0.2-0.8,0.6-1.1,1c-0.3,0.4-0.4,0.9-0.6,1.5c-0.1,0.6-0.2,1.2-0.2,1.8V23
	h-4.1V7.5H61.7z M83.1,7.2c1,0,1.8,0.1,2.5,0.3c0.7,0.2,1.3,0.4,1.7,0.6c0.5,0.2,0.8,0.4,1.1,0.6c0.3,0.2,0.4,0.4,0.5,0.5l-1.1,3.1
	c-0.1-0.1-0.3-0.3-0.5-0.4c-0.2-0.2-0.5-0.4-0.9-0.5c-0.3-0.2-0.8-0.3-1.2-0.4c-0.5-0.1-1-0.2-1.6-0.2c-1.2,0-2.3,0.4-3.1,1.2
	c-0.9,0.8-1.3,1.9-1.3,3.3s0.4,2.6,1.3,3.4c0.9,0.9,2,1.3,3.3,1.3c0.7,0,1.3-0.1,1.8-0.3c0.5-0.2,0.9-0.4,1.3-0.6
	c0.4-0.2,0.8-0.5,1.1-0.8l1.2,3c-0.1,0.1-0.3,0.2-0.5,0.4c-0.2,0.2-0.6,0.5-1.1,0.7c-0.5,0.2-1.1,0.4-1.8,0.6
	c-0.7,0.2-1.6,0.3-2.6,0.3c-1,0-2.1-0.2-3-0.5c-1-0.4-1.9-0.9-2.6-1.6c-0.7-0.7-1.3-1.5-1.8-2.5c-0.4-1-0.7-2.1-0.7-3.4
	c0-1.3,0.2-2.4,0.7-3.4c0.5-1,1.1-1.9,1.9-2.6C78.2,8.7,79,8.2,80,7.8C81,7.4,82,7.2,83.1,7.2z M98.6,7.2c1.2,0,2.3,0.2,3.2,0.6
	c1,0.4,1.8,0.9,2.4,1.5c0.7,0.6,1.2,1.4,1.5,2.3c0.4,0.9,0.5,1.8,0.5,2.8c0,0.2,0,0.4,0,0.7c0,0.2,0,0.5,0,0.7c0,0.2,0,0.5,0,0.7
	H94.8c0.2,1.2,0.7,2.2,1.6,2.8c0.9,0.6,1.9,0.9,3,0.9c1,0,2-0.2,2.8-0.5c0.9-0.4,1.5-0.7,1.8-1l1.6,2.2c-0.2,0.2-0.5,0.5-0.9,0.8
	c-0.4,0.3-0.9,0.5-1.5,0.8c-0.6,0.3-1.2,0.5-2,0.6c-0.8,0.2-1.6,0.3-2.6,0.3c-1.2,0-2.3-0.2-3.3-0.5c-1-0.4-1.8-0.9-2.6-1.5
	c-0.7-0.7-1.3-1.5-1.7-2.5c-0.4-1-0.6-2.1-0.6-3.3s0.2-2.4,0.6-3.4c0.4-1,1-1.9,1.7-2.6c0.7-0.7,1.6-1.3,2.5-1.7
	C96.4,7.4,97.4,7.2,98.6,7.2z M94.7,13.9h7.4c0-0.4-0.1-0.9-0.2-1.3c-0.1-0.4-0.3-0.8-0.5-1.2c-0.3-0.4-0.6-0.7-1.1-0.9
	c-0.4-0.2-1-0.4-1.8-0.4c-1.2,0-2.1,0.4-2.8,1.1S94.8,12.9,94.7,13.9z M123.8,16.8c0,1.1-0.2,2.1-0.7,2.8c-0.4,0.7-1,1.4-1.7,2
	c-0.7,0.6-1.4,0.9-2.3,1.2c-0.9,0.2-1.9,0.3-3.2,0.3h-5.9V0.9h4.9c1.1,0,2,0.1,2.9,0.2c0.9,0.1,1.6,0.4,2.2,0.9s1.1,1.1,1.5,1.7
	c0.4,0.7,0.6,1.6,0.6,2.7c0,0.6-0.1,1.1-0.3,1.6c-0.2,0.5-0.4,1-0.7,1.4c-0.3,0.4-0.7,0.8-1.1,1.1c-0.4,0.3-0.9,0.5-1.4,0.7
	c1.6,0.3,2.8,0.9,3.7,1.8C123.4,14,123.8,15.2,123.8,16.8z M122,16.9c0-0.9-0.2-1.6-0.5-2.1c-0.3-0.6-0.8-1.1-1.4-1.5
	c-0.6-0.4-1.4-0.7-2.2-0.8c-0.8-0.1-1.6-0.2-2.4-0.2h-3.6v9.1h3.6c0.8,0,1.6,0,2.4-0.1c0.8-0.1,1.6-0.3,2.2-0.8
	c0.6-0.4,1.1-1,1.4-1.5C121.8,18.4,122,17.7,122,16.9z M120.4,6.5c0-0.8-0.1-1.5-0.4-2c-0.3-0.5-0.7-0.9-1.2-1.2
	c-0.5-0.3-1.1-0.5-1.7-0.6c-0.6-0.1-1.3-0.2-2-0.2h-3.3v8.3h3c0.9,0,1.7-0.1,2.3-0.2c0.6-0.1,1.1-0.3,1.6-0.6
	c0.4-0.3,0.8-0.7,1.2-1.2C120.2,8.2,120.4,7.5,120.4,6.5z M137,23v-2.1c-0.1,0.1-0.3,0.4-0.6,0.6c-0.3,0.3-0.6,0.5-1.1,0.8
	c-0.4,0.3-0.9,0.5-1.4,0.7c-0.6,0.2-1.2,0.3-1.9,0.3c-0.7,0-1.4-0.1-2-0.3c-0.6-0.2-1.1-0.6-1.6-1c-0.4-0.4-0.8-0.9-1-1.4
	c-0.2-0.6-0.4-1.2-0.4-1.8c0-1.3,0.5-2.3,1.4-3.1c1-0.8,2.5-1.3,4.5-1.3l4.1-0.2v-0.8c0-1.4-0.4-2.4-1.2-3c-0.8-0.7-1.8-1-2.9-1
	c-0.6,0-1.1,0.1-1.6,0.2c-0.5,0.1-0.9,0.2-1.3,0.4c-0.4,0.1-0.7,0.3-1,0.4c-0.2,0.1-0.4,0.2-0.5,0.3l-0.6-1.2c0.5-0.3,1.2-0.7,2-1
	c0.9-0.3,1.8-0.5,3-0.5c2.1,0,3.6,0.6,4.5,1.7c0.9,1.1,1.4,2.7,1.4,4.6V23H137z M132.7,15.7c-0.8,0-1.4,0.2-2,0.4
	c-0.5,0.2-0.9,0.4-1.2,0.7c-0.3,0.3-0.6,0.6-0.7,1c-0.1,0.3-0.2,0.7-0.2,1.1c0,0.8,0.3,1.5,0.9,2.1c0.6,0.6,1.5,0.9,2.7,0.9
	c0.6,0,1.1-0.1,1.6-0.3c0.5-0.2,1-0.4,1.3-0.7c0.4-0.3,0.7-0.6,1-0.9c0.3-0.3,0.5-0.6,0.7-0.9v-3.7L132.7,15.7z M153.5,23v-8.8
	c0-0.6,0-1.2-0.1-1.8c-0.1-0.6-0.2-1.1-0.5-1.6c-0.3-0.5-0.6-0.8-1.1-1.1c-0.5-0.3-1.1-0.4-1.9-0.4c-0.8,0-1.5,0.2-2.1,0.5
	c-0.6,0.3-1.1,0.8-1.5,1.3c-0.4,0.6-0.7,1.2-0.9,2c-0.2,0.8-0.3,1.6-0.3,2.5V23h-1.7V8.2h1.7v2.8c0.4-0.9,1-1.6,1.9-2.2
	c0.9-0.6,1.9-0.8,2.9-0.8c1.1,0,1.9,0.2,2.6,0.5c0.7,0.3,1.2,0.8,1.6,1.3c0.4,0.6,0.7,1.2,0.8,2s0.2,1.6,0.2,2.5V23H153.5z M170,23
	l-6.1-8.2l-2,1.9V23h-1.7V0.9h1.7v13.9l7.1-6.7h2.1l-6.1,5.7l7,9.2H170z"/>
</svg>
