<?xml version="1.0" encoding="UTF-8" standalone="no"?>
<!-- Created with Inkscape (http://www.inkscape.org/) -->
<svg
   xmlnsSvg="http://www.w3.org/2000/svg"
   xmlns="http://www.w3.org/2000/svg"
   version="1.0"
   width="217"
   height="354"
   viewBox="-0.481 -0.503 217 354"
   id="svg2"
   xmlSpace="preserve">
	<defs
   id="defs4">
	</defs>
	<g
   id="g6">
		<path
   d="M 10.422,30.563 C 10.422,19.462 19.467,10.412 30.574,10.412 L 185.805,10.412 C 197.074,10.412 206.118,19.462 206.118,30.563 L 206.118,322.914 C 206.118,334.019 197.074,343.064 185.805,343.064 L 30.574,343.064 C 19.468,343.064 10.422,334.019 10.422,322.914 L 10.422,30.563"
   style="fill:#ffffff"
   id="path8" />
		<path
   d="M 18.785,65.057 L 18.785,30.563 C 18.785,24.078 24.088,18.786 30.574,18.786 L 185.805,18.786 C 192.463,18.786 197.756,24.078 197.756,30.563 L 197.756,65.057 L 18.785,65.057"
   style="fill:#004990"
   id="path10" />
		<rect
   width="178.96001"
   height="206.634"
   x="18.785"
   y="73.43"
   style="fill:#004990"
   id="rect12" /> 
		<path
   d="M 160.015,48.16 C 160.699,49.18 162.24,50.378 163.257,50.888 C 166.165,52.428 168.736,52.937 171.457,52.937 C 175.729,52.937 178.289,51.055 178.289,48.329 C 178.289,45.074 175.036,44.564 170.091,43.893 C 163.778,43.036 160.362,40.128 160.362,35.01 C 160.524,29.885 165.319,25.947 172.313,25.947 C 177.084,25.947 180.339,26.978 182.389,27.998 L 182.389,34.663 C 181.705,33.469 180.164,32.612 178.637,31.935 C 176.574,31.245 174.526,30.904 172.313,30.904 C 168.897,30.904 166.846,32.271 166.846,33.99 C 166.846,36.88 169.58,37.227 175.557,38.426 C 181.532,39.618 185.121,42.185 184.948,47.471 C 184.775,53.615 179.991,57.719 171.457,57.719 C 167.692,57.719 162.921,57.031 160.015,55.501 L 160.015,48.16"
   style="fill:#ffffff"
   id="path14" />
		<path
   d="M 53.968,35.861 C 53.968,38.936 51.409,40.128 47.483,40.128 L 40.314,40.128 L 40.314,31.414 L 47.483,31.414 C 51.409,31.414 53.968,32.612 53.968,35.861 M 58.403,49.521 C 56.874,46.621 55.681,44.403 53.458,43.372 C 58.241,42.352 60.627,39.619 60.627,35.52 C 60.627,31.594 58.913,28.524 55.682,27.326 C 53.633,26.469 51.06,26.469 47.135,26.469 L 31.431,26.469 C 32.971,27.489 33.817,30.563 33.817,33.302 L 33.817,50.546 C 33.817,53.105 32.97,56.353 31.431,57.211 L 42.687,57.211 C 41.159,56.353 40.314,53.105 40.314,50.546 L 40.314,45.073 L 45.085,45.073 C 47.483,45.073 48.848,45.93 49.868,47.818 C 51.57,50.546 52.776,54.303 54.825,57.211 L 63.869,57.211 C 61.148,55.334 59.77,52.427 58.403,49.521 z "
   style="fill:#ffffff"
   id="path16" />
		<path
   d="M 82.318,58.062 C 86.579,58.062 90.181,56.862 92.903,54.466 C 96.157,51.744 98.368,47.638 98.368,41.836 C 98.368,36.208 96.157,31.935 92.903,29.196 C 90.181,26.978 86.579,25.78 82.318,25.78 C 78.044,25.78 74.465,26.978 71.721,29.196 C 68.49,31.935 66.266,36.208 66.266,41.836 C 66.266,47.638 68.49,51.744 71.721,54.466 C 74.465,56.862 78.218,58.062 82.318,58.062 M 75.832,50.036 C 73.957,48.328 73.1,45.6 73.1,41.836 C 73.1,38.246 73.957,35.52 75.832,33.643 C 77.361,32.102 79.585,31.084 82.318,31.084 C 85.05,31.084 87.274,32.102 88.803,33.643 C 90.691,35.519 91.709,38.246 91.709,41.836 C 91.709,45.601 90.69,48.328 88.803,50.036 C 87.273,51.576 85.05,52.595 82.318,52.595 C 79.585,52.595 77.361,51.576 75.832,50.036 z "
   style="fill:#ffffff"
   id="path18" />
		<path
   d="M 126.72,49.346 C 125.005,51.575 121.427,52.254 117.501,52.254 L 111.524,52.254 L 111.524,33.302 C 111.524,30.737 112.371,27.488 113.737,26.469 L 102.643,26.469 C 104.17,27.489 105.039,30.738 105.039,33.302 L 105.039,50.546 C 105.039,53.284 104.17,56.18 102.643,57.211 L 125.688,57.211 L 126.72,49.346"
   style="fill:#ffffff"
   id="path20" />
		<path
   d="M 154.548,49.346 C 152.835,51.575 149.256,52.427 145.33,52.254 L 139.181,52.254 L 139.181,33.302 C 139.181,30.737 140.027,27.488 141.577,26.469 L 130.472,26.469 C 132,27.489 132.868,30.738 132.868,33.302 L 132.868,50.546 C 132.868,53.284 132,56.353 130.472,57.372 L 153.345,57.372 L 154.548,49.346"
   style="fill:#ffffff"
   id="path22" />
		<path
   d="M 216.368,30.563 C 216.368,13.66 202.702,0 185.806,0 L 30.574,0 C 13.666,0 0,13.66 0,30.563 L 0,322.914 C 0,339.834 13.666,353.488 30.574,353.488 L 185.805,353.488 C 202.701,353.488 216.368,339.834 216.368,322.914 L 216.368,30.563 M 10.422,30.563 C 10.422,19.462 19.467,10.412 30.574,10.412 L 185.805,10.412 C 197.074,10.412 206.118,19.462 206.118,30.563 L 206.118,322.914 C 206.118,334.019 197.074,343.064 185.805,343.064 L 30.574,343.064 C 19.468,343.064 10.422,334.019 10.422,322.914 L 10.422,30.563 z "
   style="fill:#004990"
   id="path24" />
		<path
   d="M 18.785,288.425 L 18.785,322.913 C 18.785,329.421 24.088,334.702 30.574,334.702 L 185.805,334.702 C 192.463,334.702 197.756,329.421 197.756,322.913 L 197.756,288.425 L 18.785,288.425"
   style="fill:#004990"
   id="path26" />
		<path
   d="M 95.462,247.103 L 95.462,201.163 C 99.898,201 104.171,200.826 108.445,200.478 C 106.904,196.888 105.364,193.31 103.488,189.894 C 100.928,190.229 98.208,190.229 95.462,190.404 L 95.462,180.849 C 89.485,182.214 83.001,183.234 76.342,183.918 L 76.342,247.103 C 76.342,261.093 69.845,264.857 65.92,267.417 L 105.874,267.417 C 102.134,264.857 95.462,261.093 95.462,247.103"
   style="fill:#ffffff"
   id="path28" />
		<path
   d="M 188.364,267.255 C 185.122,264.174 181.01,259.392 178.973,250.011 C 175.219,232.755 167.356,207.994 150.796,189.546 C 167.021,180.675 176.922,166.662 176.922,149.43 C 177.084,137.125 170.772,124.154 159.504,116.47 C 154.722,113.383 149.092,111.165 142.423,109.798 C 144.819,114.924 146.349,120.39 146.695,125.862 C 153.69,131.317 157.455,139.69 157.455,149.764 C 157.455,162.573 150.969,177.594 128.26,185.283 C 130.123,188.862 131.999,192.626 133.54,196.205 C 134.744,195.87 135.936,195.532 137.141,195.185 C 147.726,207.484 156.25,226.779 158.809,244.706 C 160.698,257.688 156.088,264.174 153.02,267.255 L 188.364,267.255"
   style="fill:#ffffff"
   id="path30" />
		<path
   d="M 60.8,169.744 L 60.8,98.027 L 87.946,98.027 C 97.858,98.195 105.202,100.245 111.005,104.333 C 118.682,109.798 122.794,118.509 122.794,128.931 C 122.794,146.511 110.657,168.886 60.8,169.744 M 148.573,246.583 C 145.155,243.514 141.069,238.729 139.18,229.339 C 135.427,212.095 127.91,187.844 112.891,170.588 C 113.563,170.253 114.084,170.078 114.755,169.743 C 131.838,161.032 142.26,146.511 142.26,128.752 C 142.423,116.29 136.1,103.482 124.842,95.797 C 115.959,89.822 104.009,87.436 88.803,87.436 L 31.257,87.436 C 35.183,89.995 41.669,93.748 41.669,107.749 L 41.669,226.27 C 41.669,240.433 35.183,244.024 31.257,246.583 L 71.212,246.583 C 67.459,244.023 60.8,240.433 60.8,226.27 L 60.8,180.328 C 74.802,180.328 87.946,178.615 99.041,175.719 C 109.128,187.845 116.644,206.629 119.03,223.873 C 120.732,236.867 116.297,243.515 113.227,246.584 L 148.573,246.584 L 148.573,246.583 z "
   style="fill:#ffffff"
   id="path32" />
		<path
   d="M 95.462,159.505 L 95.462,119.03 L 116.98,119.03 C 115.453,114.583 112.707,110.998 108.966,108.259 L 65.919,108.259 C 69.845,110.823 76.341,114.414 76.341,128.583 L 76.341,164.276 C 83.511,163.257 89.995,161.729 95.462,159.505"
   style="fill:#ffffff"
   id="path34" />
		<path
   d="M 134.571,311.656 C 134.571,317.447 137.988,321.894 143.964,321.894 C 148.236,321.894 152.162,320.701 153.866,318.652 L 152.835,325.322 C 151.306,325.994 148.573,326.851 144.138,326.851 C 134.572,326.851 127.911,321.21 127.911,311.656 C 127.911,306.538 129.962,302.6 133.031,300.041 C 135.764,297.644 139.516,296.277 144.137,296.277 C 148.573,296.277 151.305,297.133 152.834,297.99 L 152.834,304.314 C 150.969,302.265 148.235,301.234 143.963,301.234 C 137.988,301.234 134.571,305.681 134.571,311.656"
   style="fill:#ffffff"
   id="path36" />
		<path
   d="M 52.937,305.843 C 52.937,308.749 50.552,309.942 46.799,309.942 L 39.967,309.942 L 39.967,301.755 L 46.799,301.755 C 50.552,301.755 52.937,302.773 52.937,305.843 M 57.211,318.825 C 55.844,316.092 54.65,313.868 52.601,313.023 C 57.048,312.166 59.26,309.432 59.434,305.681 C 59.434,301.755 57.73,298.847 54.65,297.643 C 52.775,296.96 50.214,296.96 46.451,296.96 L 31.594,296.96 C 32.971,297.817 33.818,300.724 33.818,303.444 L 33.818,319.855 C 33.818,322.24 32.971,325.321 31.594,326.34 L 42.179,326.34 C 40.824,325.32 39.967,322.239 39.967,319.855 L 39.967,314.551 L 44.403,314.551 C 46.799,314.551 48.154,315.571 49.197,317.283 C 50.725,319.854 51.919,323.422 53.794,326.165 L 62.514,326.34 C 59.77,324.303 58.588,321.72 57.211,318.825 z "
   style="fill:#ffffff"
   id="path38" />
		<path
   d="M 79.932,327.025 C 84.02,327.025 87.436,325.832 89.995,323.607 C 93.064,321.048 95.3,317.111 95.3,311.656 C 95.3,306.191 93.065,302.265 89.995,299.519 C 87.436,297.48 84.02,296.277 79.932,296.277 C 75.994,296.277 72.578,297.48 70.019,299.519 C 66.949,302.265 64.725,306.191 64.725,311.656 C 64.725,317.111 66.949,321.049 70.019,323.607 C 72.579,325.832 75.995,327.025 79.932,327.025 M 73.771,319.346 C 72.069,317.793 71.212,315.234 71.212,311.656 C 71.212,308.066 72.069,305.518 73.771,303.793 C 75.312,302.266 77.361,301.408 80.095,301.408 C 82.654,301.408 84.703,302.265 86.244,303.793 C 87.946,305.519 88.804,308.066 88.804,311.656 C 88.804,315.234 87.947,317.794 86.244,319.346 C 84.703,320.874 82.654,321.894 80.095,321.894 C 77.361,321.894 75.312,320.875 73.771,319.346 z "
   style="fill:#ffffff"
   id="path40" />
		<path
   d="M 118.172,296.96 C 118.868,297.48 119.203,297.989 119.03,298.662 C 119.03,299.356 118.681,300.376 118.01,301.407 L 112.196,309.768 L 106.394,301.233 C 105.711,300.213 105.04,299.195 105.202,298.327 C 105.364,297.817 105.55,297.307 106.222,296.96 L 94.442,296.96 C 96.481,297.817 97.511,299.356 99.041,301.58 L 108.618,315.061 L 108.618,319.855 C 108.618,322.24 107.761,325.321 106.394,326.166 L 116.979,326.166 C 115.612,325.321 114.755,322.24 114.755,319.855 L 114.755,315.061 L 123.475,302.772 C 124.842,301.07 126.719,297.989 128.768,296.959 L 118.172,296.959"
   style="fill:#ffffff"
   id="path42" />
		<path
   d="M 174.873,321.558 L 167.356,321.558 L 167.356,313.533 L 178.637,313.533 L 179.308,309.086 L 167.356,309.086 L 167.356,301.756 L 174.016,301.756 C 177.779,301.756 180.849,301.916 182.389,303.445 L 182.389,296.961 L 158.994,296.961 C 160.361,297.99 161.207,301.071 161.207,303.445 L 161.207,319.856 C 161.207,322.404 160.361,325.322 158.994,326.341 L 182.562,326.341 L 183.58,319.159 C 181.868,321.384 178.638,321.558 174.873,321.558"
   style="fill:#ffffff"
   id="path44" />
	</g>
</svg>