<svg width="173" height="24" viewBox="0 0 173 24" fill="none" xmlns="http://www.w3.org/2000/svg">
<path d="M11.48 0.599998C12.568 0.599998 13.5387 0.706665 14.392 0.919998C15.2453 1.112 15.992 1.34667 16.632 1.624C17.272 1.90133 17.8053 2.2 18.232 2.52C18.6587 2.81867 18.9787 3.08533 19.192 3.32L17.72 6.712C17.5707 6.49867 17.304 6.25333 16.92 5.976C16.536 5.67733 16.0667 5.4 15.512 5.144C14.9787 4.86667 14.36 4.64267 13.656 4.472C12.9733 4.28 12.2373 4.184 11.448 4.184C10.488 4.184 9.57067 4.344 8.696 4.664C7.84267 4.984 7.08533 5.464 6.424 6.104C5.784 6.744 5.272 7.55467 4.888 8.536C4.504 9.496 4.312 10.6267 4.312 11.928C4.312 13.1227 4.48267 14.2107 4.824 15.192C5.18667 16.152 5.688 16.9733 6.328 17.656C6.98933 18.3387 7.768 18.872 8.664 19.256C9.58133 19.6187 10.5947 19.8 11.704 19.8C13.176 19.8 14.424 19.5333 15.448 19C16.4933 18.4453 17.3467 17.816 18.008 17.112L19.48 20.248C19.16 20.5893 18.7653 20.9413 18.296 21.304C17.848 21.6667 17.2933 22.008 16.632 22.328C15.992 22.6267 15.2453 22.872 14.392 23.064C13.5387 23.2773 12.568 23.384 11.48 23.384C9.85867 23.384 8.344 23.1173 6.936 22.584C5.54933 22.0507 4.344 21.2933 3.32 20.312C2.296 19.3307 1.48533 18.136 0.888 16.728C0.312 15.32 0.024 13.7413 0.024 11.992C0.024 10.2427 0.322667 8.664 0.92 7.256C1.51733 5.848 2.328 4.65333 3.352 3.672C4.376 2.69067 5.58133 1.93333 6.968 1.4C8.376 0.866666 9.88 0.599998 11.48 0.599998ZM26.4633 0.919998V9.848H26.5272C26.9539 9.03733 27.5513 8.39733 28.3193 7.928C29.0873 7.45867 30.0366 7.224 31.1673 7.224C32.2766 7.224 33.1939 7.39467 33.9193 7.736C34.6446 8.07733 35.2099 8.54667 35.6153 9.144C36.0419 9.72 36.3299 10.4133 36.4792 11.224C36.6499 12.0133 36.7353 12.8773 36.7353 13.816V23H32.6392V14.712C32.6392 14.136 32.6072 13.6027 32.5433 13.112C32.4793 12.6 32.3406 12.1627 32.1273 11.8C31.9353 11.416 31.6579 11.1173 31.2952 10.904C30.9326 10.6907 30.4526 10.584 29.8553 10.584C29.2153 10.584 28.6819 10.712 28.2552 10.968C27.8286 11.2027 27.4766 11.5333 27.1993 11.96C26.9433 12.3867 26.7512 12.888 26.6233 13.464C26.5166 14.04 26.4633 14.648 26.4633 15.288V23H22.3992V0.919998H26.4633ZM45.9307 13.784L49.6427 13.528V13.112C49.6427 12.1093 49.3334 11.3733 48.7148 10.904C48.1174 10.4347 47.2747 10.2 46.1867 10.2C45.1627 10.2 44.2561 10.3493 43.4667 10.648C42.6774 10.9467 42.1121 11.224 41.7707 11.48L40.5227 8.856C41.1201 8.49333 41.9414 8.13067 42.9867 7.768C44.0321 7.40533 45.2267 7.224 46.5707 7.224C48.9601 7.224 50.7521 7.77867 51.9467 8.888C53.1414 9.976 53.7388 11.7253 53.7388 14.136V23H49.8027L49.7387 21.208C49.4187 21.7627 48.8321 22.264 47.9788 22.712C47.1467 23.1387 46.1547 23.352 45.0027 23.352C44.2561 23.352 43.5521 23.2453 42.8907 23.032C42.2294 22.84 41.6534 22.5413 41.1627 22.136C40.6721 21.7307 40.2774 21.2293 39.9787 20.632C39.7014 20.0133 39.5627 19.2987 39.5627 18.488C39.5627 17.6773 39.7441 16.9947 40.1067 16.44C40.4694 15.864 40.9494 15.3947 41.5467 15.032C42.1441 14.648 42.8267 14.36 43.5947 14.168C44.3627 13.976 45.1414 13.848 45.9307 13.784ZM46.3467 20.568C47.1574 20.568 47.8401 20.3867 48.3947 20.024C48.9707 19.64 49.3974 19.256 49.6748 18.872V16.024L46.8907 16.184C44.7361 16.312 43.6587 17.0373 43.6587 18.36C43.6587 19.0213 43.8934 19.5547 44.3627 19.96C44.8321 20.3653 45.4934 20.568 46.3467 20.568ZM61.6627 7.512L61.6307 9.848H61.7267C62.1534 9.03733 62.7507 8.39733 63.5187 7.928C64.2867 7.45867 65.2361 7.224 66.3667 7.224C67.4761 7.224 68.3934 7.39467 69.1187 7.736C69.8441 8.07733 70.4094 8.54667 70.8147 9.144C71.2414 9.72 71.5294 10.4133 71.6787 11.224C71.8494 12.0133 71.9347 12.8773 71.9347 13.816V23H67.8387V14.712C67.8387 14.136 67.8067 13.6027 67.7427 13.112C67.6787 12.6 67.5401 12.1627 67.3267 11.8C67.1347 11.416 66.8574 11.1173 66.4948 10.904C66.1321 10.6907 65.6521 10.584 65.0547 10.584C64.4147 10.584 63.8814 10.712 63.4547 10.968C63.0281 11.2027 62.6761 11.5333 62.3987 11.96C62.1427 12.3867 61.9507 12.888 61.8227 13.464C61.7161 14.04 61.6627 14.648 61.6627 15.288V23H57.5667V7.512H61.6627ZM83.0532 7.224C84.0346 7.224 84.8666 7.30933 85.5492 7.48C86.2532 7.65067 86.8292 7.85333 87.2772 8.088C87.7466 8.30133 88.1092 8.51467 88.3652 8.728C88.6212 8.94133 88.8026 9.10133 88.9092 9.208L87.7892 12.28C87.6612 12.1733 87.4799 12.024 87.2452 11.832C87.0319 11.64 86.7439 11.4587 86.3812 11.288C86.0399 11.1173 85.6239 10.968 85.1332 10.84C84.6639 10.712 84.1306 10.648 83.5332 10.648C82.3172 10.648 81.2826 11.0533 80.4292 11.864C79.5759 12.6533 79.1492 13.7627 79.1492 15.192C79.1492 16.6213 79.5759 17.7627 80.4292 18.616C81.3039 19.4693 82.4132 19.896 83.7572 19.896C84.4399 19.896 85.0266 19.8107 85.5172 19.64C86.0292 19.4693 86.4666 19.2773 86.8292 19.064C87.2346 18.8293 87.5866 18.5627 87.8852 18.264L89.0372 21.272C88.9519 21.336 88.7812 21.4853 88.5252 21.72C88.2906 21.9547 87.9279 22.1893 87.4372 22.424C86.9679 22.6587 86.3599 22.872 85.6132 23.064C84.8879 23.256 84.0132 23.352 82.9892 23.352C81.9439 23.352 80.9306 23.1813 79.9492 22.84C78.9679 22.4773 78.0932 21.9547 77.3252 21.272C76.5786 20.5893 75.9812 19.7573 75.5332 18.776C75.0852 17.7733 74.8612 16.6427 74.8612 15.384C74.8612 14.104 75.0852 12.9627 75.5332 11.96C76.0026 10.9573 76.6212 10.104 77.3892 9.4C78.1572 8.696 79.0319 8.16267 80.0132 7.8C80.9946 7.416 82.0079 7.224 83.0532 7.224ZM98.5585 7.224C99.7532 7.224 100.82 7.416 101.758 7.8C102.718 8.16267 103.518 8.67467 104.158 9.336C104.82 9.976 105.321 10.744 105.662 11.64C106.025 12.5147 106.206 13.464 106.206 14.488C106.206 14.68 106.206 14.904 106.206 15.16C106.206 15.3947 106.196 15.6187 106.174 15.832C106.174 16.0667 106.164 16.312 106.142 16.568H94.7505C94.9425 17.8053 95.4652 18.7227 96.3185 19.32C97.1718 19.9173 98.1852 20.216 99.3585 20.216C100.404 20.216 101.353 20.0347 102.206 19.672C103.06 19.3093 103.668 18.968 104.03 18.648L105.63 20.856C105.417 21.0693 105.108 21.3253 104.702 21.624C104.297 21.9013 103.806 22.168 103.23 22.424C102.654 22.68 101.982 22.8933 101.214 23.064C100.446 23.256 99.5932 23.352 98.6545 23.352C97.4812 23.352 96.3932 23.1813 95.3905 22.84C94.4092 22.4773 93.5558 21.9653 92.8305 21.304C92.1052 20.6427 91.5398 19.8213 91.1345 18.84C90.7292 17.8587 90.5265 16.7493 90.5265 15.512C90.5265 14.2747 90.7398 13.144 91.1665 12.12C91.5932 11.096 92.1692 10.2213 92.8945 9.496C93.6198 8.77067 94.4625 8.216 95.4225 7.832C96.4038 7.42667 97.4492 7.224 98.5585 7.224ZM94.6865 13.912H102.11C102.089 13.4853 102.025 13.0587 101.918 12.632C101.812 12.2053 101.63 11.8213 101.374 11.48C101.118 11.1173 100.756 10.8293 100.286 10.616C99.8385 10.3813 99.2518 10.264 98.5265 10.264C97.3105 10.264 96.3825 10.6267 95.7425 11.352C95.1025 12.0773 94.7505 12.9307 94.6865 13.912ZM123.837 16.76C123.837 17.8907 123.613 18.84 123.165 19.608C122.739 20.3547 122.184 21.0053 121.501 21.56C120.819 22.1147 120.051 22.4987 119.197 22.712C118.344 22.904 117.277 23 115.997 23H110.077V0.919998H114.941C116.029 0.919998 116.989 0.983999 117.821 1.112C118.675 1.24 119.421 1.54933 120.061 2.04C120.701 2.53067 121.203 3.10667 121.565 3.768C121.949 4.42933 122.141 5.32533 122.141 6.456C122.141 7.01067 122.045 7.55467 121.853 8.088C121.683 8.6 121.437 9.06933 121.117 9.496C120.819 9.92267 120.456 10.296 120.029 10.616C119.603 10.9147 119.144 11.1387 118.653 11.288C120.211 11.544 121.459 12.1413 122.397 13.08C123.357 13.9973 123.837 15.224 123.837 16.76ZM121.981 16.856C121.981 16.0027 121.821 15.2987 121.501 14.744C121.181 14.1893 120.701 13.688 120.061 13.24C119.421 12.8133 118.685 12.5573 117.853 12.472C117.043 12.3653 116.232 12.312 115.421 12.312H111.805V21.432H115.421C116.232 21.432 117.043 21.3893 117.853 21.304C118.685 21.2187 119.421 20.9627 120.061 20.536C120.701 20.088 121.181 19.576 121.501 19C121.821 18.4027 121.981 17.688 121.981 16.856ZM120.381 6.52C120.381 5.688 120.232 5.016 119.933 4.504C119.656 3.97067 119.272 3.55467 118.781 3.256C118.291 2.95733 117.725 2.75467 117.085 2.648C116.467 2.54133 115.805 2.488 115.101 2.488H111.805V10.776H114.781C115.677 10.776 116.435 10.7227 117.053 10.616C117.672 10.488 118.195 10.2747 118.621 9.976C119.048 9.67733 119.443 9.272 119.805 8.76C120.189 8.22667 120.381 7.48 120.381 6.52ZM136.965 23V20.92C136.837 21.0693 136.635 21.2827 136.357 21.56C136.08 21.8373 135.728 22.104 135.301 22.36C134.896 22.616 134.416 22.84 133.861 23.032C133.307 23.224 132.667 23.32 131.941 23.32C131.216 23.32 130.544 23.2133 129.925 23C129.328 22.7653 128.805 22.4453 128.357 22.04C127.931 21.6347 127.589 21.1653 127.333 20.632C127.099 20.0773 126.981 19.48 126.981 18.84C126.981 17.56 127.461 16.5147 128.421 15.704C129.403 14.8933 130.896 14.4453 132.901 14.36L136.965 14.2V13.4C136.965 12.0347 136.56 11.0213 135.749 10.36C134.96 9.67733 133.979 9.336 132.805 9.336C132.229 9.336 131.685 9.38933 131.173 9.496C130.683 9.60267 130.245 9.73067 129.861 9.88C129.477 10.0293 129.157 10.1787 128.901 10.328C128.667 10.456 128.507 10.552 128.421 10.616L127.781 9.4C128.272 9.08 128.933 8.74933 129.765 8.408C130.619 8.06667 131.611 7.896 132.741 7.896C134.811 7.896 136.315 8.45067 137.253 9.56C138.192 10.6693 138.661 12.216 138.661 14.2V23H136.965ZM132.741 15.736C131.973 15.7787 131.323 15.896 130.789 16.088C130.277 16.2587 129.861 16.4827 129.541 16.76C129.221 17.0373 128.987 17.3573 128.837 17.72C128.709 18.0613 128.645 18.4347 128.645 18.84C128.645 19.6507 128.944 20.3653 129.541 20.984C130.139 21.5813 131.045 21.88 132.261 21.88C132.859 21.88 133.403 21.7947 133.893 21.624C134.405 21.432 134.853 21.208 135.237 20.952C135.643 20.6747 135.984 20.376 136.261 20.056C136.56 19.736 136.795 19.4373 136.965 19.16V15.48L132.741 15.736ZM153.476 23V14.2C153.476 13.6027 153.433 13.016 153.348 12.44C153.284 11.8427 153.124 11.32 152.868 10.872C152.612 10.4027 152.249 10.0293 151.78 9.752C151.311 9.47467 150.671 9.336 149.86 9.336C149.071 9.336 148.377 9.50667 147.78 9.848C147.183 10.168 146.681 10.616 146.276 11.192C145.892 11.7467 145.604 12.408 145.412 13.176C145.22 13.944 145.124 14.7653 145.124 15.64V23H143.46V8.152H145.124V10.904C145.487 10.008 146.105 9.28267 146.98 8.728C147.855 8.17333 148.836 7.896 149.924 7.896C150.991 7.896 151.865 8.056 152.548 8.376C153.231 8.696 153.764 9.13333 154.148 9.688C154.532 10.2427 154.799 10.904 154.948 11.672C155.097 12.44 155.172 13.2613 155.172 14.136V23H153.476ZM170.044 23L163.964 14.84L161.948 16.696V23H160.284V0.919998H161.948V14.84L169.084 8.152H171.164L165.084 13.816L172.124 23H170.044Z" fill="#333357"/>
</svg>
