<?xml version="1.0" encoding="utf-8"?>
<svg width="96px" height="107px" viewBox="0 0 96 107" version="1.1" xmlns:xlink="http://www.w3.org/1999/xlink" xmlns="http://www.w3.org/2000/svg">
  <g id="Microsoft-Word">
    <path d="M95.7694 106.363L14 106.363L14 0L70.2165 0L95.7694 25.3245L95.7694 106.363Z" id="Shape-Copy-3" fill="#1C5DA4" fill-rule="evenodd" stroke="none" />
    <path d="M92.0602 27.5664L67.7849 27.5664L67.7849 3.5082L92.0602 27.5664Z" id="Shape-Copy-2" fill="#7BB6F6" fill-rule="evenodd" stroke="none" />
    <path d="M3.999 16L51.001 16Q51.1975 16 51.393 16.0193Q51.5885 16.0385 51.7812 16.0768Q51.9738 16.1152 52.1618 16.1722Q52.3498 16.2292 52.5313 16.3044Q52.7129 16.3796 52.8861 16.4722Q53.0594 16.5648 53.2227 16.674Q53.3861 16.7831 53.5379 16.9077Q53.6898 17.0324 53.8287 17.1713Q53.9676 17.3102 54.0923 17.4621Q54.2169 17.6139 54.326 17.7773Q54.4352 17.9406 54.5278 18.1139Q54.6204 18.2871 54.6956 18.4686Q54.7708 18.6502 54.8278 18.8382Q54.8848 19.0262 54.9232 19.2188Q54.9615 19.4115 54.9807 19.607Q55 19.8025 55 19.999L55 40.001Q55 40.1975 54.9807 40.393Q54.9615 40.5885 54.9232 40.7812Q54.8848 40.9739 54.8278 41.1618Q54.7708 41.3498 54.6956 41.5313Q54.6204 41.7129 54.5278 41.8861Q54.4352 42.0594 54.326 42.2227Q54.2169 42.3861 54.0923 42.5379Q53.9676 42.6898 53.8287 42.8287Q53.6898 42.9676 53.5379 43.0923Q53.3861 43.2169 53.2227 43.326Q53.0594 43.4352 52.8861 43.5278Q52.7129 43.6204 52.5313 43.6956Q52.3498 43.7708 52.1618 43.8278Q51.9738 43.8848 51.7812 43.9232Q51.5885 43.9615 51.393 43.9807Q51.1975 44 51.001 44L3.999 44Q3.80254 44 3.60703 43.9807Q3.41152 43.9615 3.21883 43.9232Q3.02615 43.8848 2.83815 43.8278Q2.65015 43.7708 2.46865 43.6956Q2.28715 43.6204 2.11388 43.5278Q1.94062 43.4352 1.77727 43.326Q1.61393 43.2169 1.46206 43.0923Q1.3102 42.9676 1.17128 42.8287Q1.03236 42.6898 0.907731 42.5379Q0.783099 42.3861 0.673953 42.2227Q0.564807 42.0594 0.472197 41.8861Q0.379587 41.7128 0.304406 41.5313Q0.229224 41.3498 0.172196 41.1618Q0.115167 40.9739 0.0768396 40.7812Q0.0385126 40.5885 0.0192563 40.393Q0 40.1975 0 40.001L0 19.999Q0 19.8025 0.0192563 19.607Q0.0385126 19.4115 0.0768396 19.2188Q0.115167 19.0262 0.172196 18.8382Q0.229224 18.6502 0.304406 18.4686Q0.379587 18.2871 0.472197 18.1139Q0.564807 17.9406 0.673953 17.7773Q0.783099 17.6139 0.907731 17.4621Q1.03236 17.3102 1.17128 17.1713Q1.3102 17.0324 1.46206 16.9077Q1.61393 16.7831 1.77727 16.674Q1.94062 16.5648 2.11388 16.4722Q2.28715 16.3796 2.46865 16.3044Q2.65015 16.2292 2.83815 16.1722Q3.02615 16.1152 3.21883 16.0768Q3.41152 16.0385 3.60703 16.0193Q3.80254 16 3.999 16Z" id="Rectangle-5-Copy-6" fill="#2C7ACD" fill-rule="evenodd" stroke="none" />
    <path d="M10.1426 37L10.1426 24.2031L14.0801 24.2031C15.2051 24.2031 16.2114 24.4565 17.0991 24.9634C17.9868 25.4702 18.6797 26.1909 19.1777 27.1255C19.6758 28.0601 19.9248 29.1221 19.9248 30.3115L19.9248 30.9004C19.9248 32.0899 19.6802 33.1475 19.1909 34.0732C18.7017 34.999 18.0117 35.7168 17.1211 36.2266C16.2305 36.7363 15.2256 36.9941 14.1064 37L10.1426 37ZM12.7793 26.3389L12.7793 34.8818L14.0537 34.8818C15.085 34.8818 15.873 34.5449 16.418 33.8711C16.9629 33.1973 17.2412 32.2334 17.2529 30.9795L17.2529 30.3027C17.2529 29.0019 16.9834 28.0161 16.4443 27.3452C15.9053 26.6743 15.1172 26.3389 14.0801 26.3389L12.7793 26.3389ZM31.9205 30.8916C31.9205 32.1514 31.6979 33.2559 31.2526 34.2051C30.8073 35.1543 30.1701 35.8867 29.341 36.4023C28.5118 36.918 27.5612 37.1758 26.4889 37.1758C25.4283 37.1758 24.4821 36.9209 23.65 36.4111C22.818 35.9014 22.1735 35.1733 21.7164 34.2271C21.2594 33.2808 21.028 32.1924 21.0221 30.9619L21.0221 30.3291C21.0221 29.0693 21.2491 27.9605 21.7033 27.0024C22.1574 26.0444 22.799 25.3091 23.6281 24.7964C24.4572 24.2837 25.4049 24.0273 26.4713 24.0273C27.5377 24.0273 28.4855 24.2837 29.3146 24.7964C30.1437 25.3091 30.7853 26.0444 31.2394 27.0024C31.6935 27.9605 31.9205 29.0664 31.9205 30.3203L31.9205 30.8916ZM29.2487 30.3115C29.2487 28.9697 29.0084 27.9502 28.528 27.2529C28.0475 26.5557 27.3619 26.207 26.4713 26.207C25.5865 26.207 24.9039 26.5513 24.4235 27.2397C23.943 27.9282 23.6998 28.9375 23.694 30.2676L23.694 30.8916C23.694 32.1982 23.9342 33.2119 24.4147 33.9326C24.8952 34.6533 25.5865 35.0137 26.4889 35.0137C27.3737 35.0137 28.0533 34.6665 28.528 33.9722C29.0026 33.2778 29.2428 32.2656 29.2487 30.9355L29.2487 30.3115ZM43.4505 32.7373C43.3508 34.1143 42.8425 35.1982 41.9256 35.9893C41.0086 36.7803 39.8001 37.1758 38.3001 37.1758C36.6594 37.1758 35.3689 36.6235 34.4285 35.519C33.488 34.4145 33.0178 32.8984 33.0178 30.9707L33.0178 30.1885C33.0178 28.958 33.2346 27.874 33.6682 26.9365C34.1018 25.999 34.7214 25.2798 35.5271 24.7788C36.3328 24.2778 37.2688 24.0273 38.3352 24.0273C39.8118 24.0273 41.0012 24.4228 41.9036 25.2139C42.8059 26.0049 43.3274 27.1152 43.468 28.5449L40.8313 28.5449C40.7669 27.7187 40.5369 27.1196 40.1414 26.7476C39.7459 26.3755 39.1438 26.1895 38.3352 26.1895C37.4563 26.1895 36.7986 26.5044 36.3621 27.1343C35.9255 27.7642 35.7014 28.7412 35.6897 30.0654L35.6897 31.0322C35.6897 32.415 35.8992 33.4258 36.3181 34.0645C36.7371 34.7031 37.3977 35.0225 38.3001 35.0225C39.1145 35.0225 39.7224 34.8364 40.1238 34.4644C40.5252 34.0923 40.7551 33.5166 40.8137 32.7373L43.4505 32.7373Z" id="DOC-Copy-2" fill="#7BB6F6" fill-rule="evenodd" stroke="none" />
    <path d="M35 63.9009L37.6006 63.9009L37.6006 87.3071L46.0529 87.3071L52.5545 75.7395L52.5545 87.3071L60.3563 87.3071L72.0594 63.9009L74.66 63.9009L74.66 60L62.9572 60L62.9572 63.9009L64.9077 63.9009L60.3563 72.8679L60.3563 60L51.2541 60L43.452 74.6831L43.452 63.9009L46.0529 63.9009L46.0529 60L35 60L35 63.9009Z" id="Path-Copy-8" fill="#7BB6F6" fill-rule="evenodd" stroke="none" />
  </g>
</svg>