<?xml version="1.0" encoding="utf-8"?>
<svg width="96px" height="107px" viewBox="0 0 96 107" version="1.1" xmlns:xlink="http://www.w3.org/1999/xlink" xmlns="http://www.w3.org/2000/svg">
  <g id="HTML">
    <path d="M95.7694 106.363L14 106.363L14 0L70.2165 0L95.7694 25.3245L95.7694 106.363Z" id="Shape-Copy-123" fill="#11907C" fill-rule="evenodd" stroke="none" />
    <path d="M92.2753 28.0582L68 28.0582L68 4L92.2753 28.0582Z" id="Shape-Copy-122" fill="#37D2BA" fill-rule="evenodd" stroke="none" />
    <path d="M3.999 16L51.001 16Q51.1975 16 51.393 16.0193Q51.5885 16.0385 51.7812 16.0768Q51.9738 16.1152 52.1618 16.1722Q52.3498 16.2292 52.5313 16.3044Q52.7129 16.3796 52.8861 16.4722Q53.0594 16.5648 53.2227 16.674Q53.3861 16.7831 53.5379 16.9077Q53.6898 17.0324 53.8287 17.1713Q53.9676 17.3102 54.0923 17.4621Q54.2169 17.6139 54.326 17.7773Q54.4352 17.9406 54.5278 18.1139Q54.6204 18.2871 54.6956 18.4686Q54.7708 18.6502 54.8278 18.8382Q54.8848 19.0262 54.9232 19.2188Q54.9615 19.4115 54.9807 19.607Q55 19.8025 55 19.999L55 40.001Q55 40.1975 54.9807 40.393Q54.9615 40.5885 54.9232 40.7812Q54.8848 40.9739 54.8278 41.1618Q54.7708 41.3498 54.6956 41.5313Q54.6204 41.7129 54.5278 41.8861Q54.4352 42.0594 54.326 42.2227Q54.2169 42.3861 54.0923 42.5379Q53.9676 42.6898 53.8287 42.8287Q53.6898 42.9676 53.5379 43.0923Q53.3861 43.2169 53.2227 43.326Q53.0594 43.4352 52.8861 43.5278Q52.7129 43.6204 52.5313 43.6956Q52.3498 43.7708 52.1618 43.8278Q51.9738 43.8848 51.7812 43.9232Q51.5885 43.9615 51.393 43.9807Q51.1975 44 51.001 44L3.999 44Q3.80254 44 3.60703 43.9807Q3.41152 43.9615 3.21883 43.9232Q3.02615 43.8848 2.83815 43.8278Q2.65015 43.7708 2.46865 43.6956Q2.28715 43.6204 2.11388 43.5278Q1.94062 43.4352 1.77727 43.326Q1.61393 43.2169 1.46206 43.0923Q1.3102 42.9676 1.17128 42.8287Q1.03236 42.6898 0.907731 42.5379Q0.783099 42.3861 0.673953 42.2227Q0.564807 42.0594 0.472197 41.8861Q0.379587 41.7128 0.304406 41.5313Q0.229224 41.3498 0.172196 41.1618Q0.115167 40.9739 0.0768396 40.7812Q0.0385126 40.5885 0.0192563 40.393Q0 40.1975 0 40.001L0 19.999Q0 19.8025 0.0192563 19.607Q0.0385126 19.4115 0.0768396 19.2188Q0.115167 19.0262 0.172196 18.8382Q0.229224 18.6502 0.304406 18.4686Q0.379587 18.2871 0.472197 18.1139Q0.564807 17.9406 0.673953 17.7773Q0.783099 17.6139 0.907731 17.4621Q1.03236 17.3102 1.17128 17.1713Q1.3102 17.0324 1.46206 16.9077Q1.61393 16.7831 1.77727 16.674Q1.94062 16.5648 2.11388 16.4722Q2.28715 16.3796 2.46865 16.3044Q2.65015 16.2292 2.83815 16.1722Q3.02615 16.1152 3.21883 16.0768Q3.41152 16.0385 3.60703 16.0193Q3.80254 16 3.999 16Z" id="Rectangle-5-Copy-98" fill="#0D6254" fill-rule="evenodd" stroke="none" />
    <path d="M15.9155 36L13.4253 36L13.4253 30.8203L8.56934 30.8203L8.56934 36L6.0791 36L6.0791 23.9141L8.56934 23.9141L8.56934 28.8115L13.4253 28.8115L13.4253 23.9141L15.9155 23.9141L15.9155 36ZM26.5153 25.9312L22.8131 25.9312L22.8131 36L20.3229 36L20.3229 25.9312L16.6705 25.9312L16.6705 23.9141L26.5153 23.9141L26.5153 25.9312ZM30.7566 23.9141L33.8611 32.6797L36.949 23.9141L40.2195 23.9141L40.2195 36L37.721 36L37.721 32.6963L37.97 26.9937L34.7078 36L32.9978 36L29.7439 27.002L29.9929 32.6963L29.9929 36L27.5027 36L27.5027 23.9141L30.7566 23.9141ZM44.4525 33.9995L49.7401 33.9995L49.7401 36L41.9623 36L41.9623 23.9141L44.4525 23.9141L44.4525 33.9995Z" id="HTML" fill="#37D2BA" fill-rule="evenodd" stroke="none" />
    <path d="M33 71.9766L47.9766 86.9531L53.6719 81.2578L44.3203 71.9766L53.6719 62.625L47.9766 57L33 71.9766ZM77.6484 71.9766L62.6719 57L56.9766 62.625L66.3281 71.9766L56.9766 81.2578L62.6719 86.9531L77.6484 71.9766Z" id="" fill="#37D2BA" fill-rule="evenodd" stroke="none" />
  </g>
</svg>