<?xml version="1.0" encoding="utf-8"?>
<svg width="96px" height="107px" viewBox="0 0 96 107" version="1.1" xmlns:xlink="http://www.w3.org/1999/xlink" xmlns="http://www.w3.org/2000/svg">
  <g id="PDF">
    <path d="M95.7694 106.363L14 106.363L14 0L70.2165 0L95.7694 25.3245L95.7694 106.363Z" id="Shape-Copy-22" fill="#C61716" fill-rule="evenodd" stroke="none" />
    <path d="M92.2753 28.0582L68 28.0582L68 4L92.2753 28.0582Z" id="Shape-Copy-21" fill="#FF7F7F" fill-rule="evenodd" stroke="none" />
    <path d="M3.999 16L51.001 16Q51.1975 16 51.393 16.0193Q51.5885 16.0385 51.7812 16.0768Q51.9738 16.1152 52.1618 16.1722Q52.3498 16.2292 52.5313 16.3044Q52.7129 16.3796 52.8861 16.4722Q53.0594 16.5648 53.2227 16.674Q53.3861 16.7831 53.5379 16.9077Q53.6898 17.0324 53.8287 17.1713Q53.9676 17.3102 54.0923 17.4621Q54.2169 17.6139 54.326 17.7773Q54.4352 17.9406 54.5278 18.1139Q54.6204 18.2871 54.6956 18.4686Q54.7708 18.6502 54.8278 18.8382Q54.8848 19.0262 54.9232 19.2188Q54.9615 19.4115 54.9807 19.607Q55 19.8025 55 19.999L55 40.001Q55 40.1975 54.9807 40.393Q54.9615 40.5885 54.9232 40.7812Q54.8848 40.9739 54.8278 41.1618Q54.7708 41.3498 54.6956 41.5313Q54.6204 41.7129 54.5278 41.8861Q54.4352 42.0594 54.326 42.2227Q54.2169 42.3861 54.0923 42.5379Q53.9676 42.6898 53.8287 42.8287Q53.6898 42.9676 53.5379 43.0923Q53.3861 43.2169 53.2227 43.326Q53.0594 43.4352 52.8861 43.5278Q52.7129 43.6204 52.5313 43.6956Q52.3498 43.7708 52.1618 43.8278Q51.9738 43.8848 51.7812 43.9232Q51.5885 43.9615 51.393 43.9807Q51.1975 44 51.001 44L3.999 44Q3.80254 44 3.60703 43.9807Q3.41152 43.9615 3.21883 43.9232Q3.02615 43.8848 2.83815 43.8278Q2.65015 43.7708 2.46865 43.6956Q2.28715 43.6204 2.11388 43.5278Q1.94062 43.4352 1.77727 43.326Q1.61393 43.2169 1.46206 43.0923Q1.3102 42.9676 1.17128 42.8287Q1.03236 42.6898 0.907731 42.5379Q0.783099 42.3861 0.673953 42.2227Q0.564807 42.0594 0.472197 41.8861Q0.379587 41.7128 0.304406 41.5313Q0.229224 41.3498 0.172196 41.1618Q0.115167 40.9739 0.0768396 40.7812Q0.0385126 40.5885 0.0192563 40.393Q0 40.1975 0 40.001L0 19.999Q0 19.8025 0.0192563 19.607Q0.0385126 19.4115 0.0768396 19.2188Q0.115167 19.0262 0.172196 18.8382Q0.229224 18.6502 0.304406 18.4686Q0.379587 18.2871 0.472197 18.1139Q0.564807 17.9406 0.673953 17.7773Q0.783099 17.6139 0.907731 17.4621Q1.03236 17.3102 1.17128 17.1713Q1.3102 17.0324 1.46206 16.9077Q1.61393 16.7831 1.77727 16.674Q1.94062 16.5648 2.11388 16.4722Q2.28715 16.3796 2.46865 16.3044Q2.65015 16.2292 2.83815 16.1722Q3.02615 16.1152 3.21883 16.0768Q3.41152 16.0385 3.60703 16.0193Q3.80254 16 3.999 16Z" id="Rectangle-5-Copy-16" fill="#9F1312" fill-rule="evenodd" stroke="none" />
    <g id="PDF" fill="#FF7F7F" transform="translate(11 19)">
      <path d="M3.7793 12.8896L3.7793 17.3984L1.14258 17.3984L1.14258 4.60156L6.13477 4.60156Q7.57617 4.60156 8.67041 5.12891Q9.76465 5.65625 10.3535 6.62744Q10.9424 7.59863 10.9424 8.83789Q10.9424 10.7188 9.65479 11.8042Q8.36719 12.8896 6.09082 12.8896L3.7793 12.8896ZM12.3209 17.3984L12.3209 4.60156L16.2584 4.60156Q17.9459 4.60156 19.2775 5.36182Q20.609 6.12207 21.3561 7.52393Q22.1032 8.92578 22.1032 10.71L22.1032 11.2988Q22.1032 13.083 21.3693 14.4717Q20.6354 15.8604 19.2994 16.625Q17.9635 17.3896 16.2848 17.3984L12.3209 17.3984ZM26.2239 12.1689L31.2864 12.1689L31.2864 10.042L26.2239 10.042L26.2239 6.7373L31.9192 6.7373L31.9192 4.60156L23.5872 4.60156L23.5872 17.3984L26.2239 17.3984L26.2239 12.1689ZM3.7793 10.7539L6.13477 10.7539Q7.18066 10.7539 7.72998 10.2617Q8.2793 9.76953 8.2793 8.85547Q8.2793 7.91504 7.72559 7.33496Q7.17187 6.75488 6.19629 6.7373L3.7793 6.7373L3.7793 10.7539ZM14.9576 6.7373L14.9576 15.2803L16.2321 15.2803Q17.7789 15.2803 18.5963 14.2695Q19.4137 13.2588 19.4313 11.3779L19.4313 10.7012Q19.4313 8.75 18.6227 7.74365Q17.8141 6.73731 16.2584 6.7373L14.9576 6.7373Z" />
    </g>
    <path d="M52.7102 71.1856C53.3363 72.585 54.0544 73.8555 54.8646 74.9972C55.6748 76.1388 56.5586 77.1147 57.5161 77.9249L58.7867 78.9193C57.4241 79.1771 55.8313 79.5361 54.0084 79.9965C52.1854 80.4568 50.2796 81.0737 48.2909 81.847L47.9595 81.9575L49.5062 78.6983C50.206 77.3357 50.8228 76.0283 51.3568 74.7762C51.8908 73.5241 52.3419 72.3272 52.7102 71.1856ZM73.0388 83.1176C73.3334 82.8598 73.5544 82.556 73.7017 82.2061C73.849 81.8562 73.9227 81.4788 73.9227 81.0737C73.9963 80.7422 73.9963 80.4292 73.9227 80.1346C73.849 79.8399 73.7201 79.5822 73.536 79.3612C73.0941 78.6246 72.2839 78.0722 71.1054 77.704C69.9269 77.3357 68.3618 77.1516 66.4099 77.1516L62.3221 77.3725L59.6153 75.5496C58.621 74.7394 57.6911 73.6438 56.8256 72.2627C55.9602 70.8817 55.2145 69.3074 54.5884 67.5397L54.6989 67.0977C55.2145 64.9986 55.5919 62.8442 55.8313 60.6346C56.0707 58.4249 55.6748 56.8045 54.6436 55.7734C54.3858 55.5156 54.0912 55.3222 53.7598 55.1933C53.4283 55.0644 53.0785 55 52.7102 55L51.9921 55C51.4028 55 50.8688 55.2578 50.3901 55.7734C49.9113 56.289 49.6167 56.8414 49.5062 57.4306C48.917 59.5298 48.7329 61.2882 48.9538 62.7061C49.1748 64.1239 49.5799 65.7904 50.1691 67.7054L50.1691 67.7606C49.8008 69.1232 49.3405 70.5871 48.7881 72.1523C48.2357 73.7174 47.5728 75.3102 46.7994 76.9306L43.7612 82.6204L40.9439 84.1671C39.0657 85.3456 37.6571 86.5425 36.718 87.7578C35.7789 88.9731 35.2357 89.9858 35.0884 90.796C35.0147 91.0907 34.9871 91.3761 35.0055 91.6523C35.0239 91.9285 35.0884 92.2139 35.1989 92.5085L35.3093 92.6742L36.8008 93.6133L38.1819 94C39.4708 94 40.861 93.2266 42.3526 91.6799C43.8441 90.1331 45.5657 87.6842 47.5176 84.3329L48.1252 84.1119C49.7456 83.5963 51.587 83.1544 53.6493 82.7861C55.7116 82.4178 58.087 82.068 60.7754 81.7365C62.3958 82.5467 64.0714 83.1452 65.8023 83.5319C67.5332 83.9186 69.0062 84.1119 70.2215 84.1119C70.8844 84.1119 71.4552 84.029 71.934 83.8633C72.4128 83.6976 72.781 83.449 73.0388 83.1176ZM71.7683 80.9079L72.0445 81.2394C72.0445 81.4235 72.0169 81.534 71.9616 81.5708C71.9064 81.6077 71.8419 81.6445 71.7683 81.6813L71.6578 81.6813L71.0501 81.7365C70.3136 81.7365 69.4205 81.5892 68.371 81.2946C67.3214 81 66.2258 80.6133 65.0841 80.1346C65.2314 79.9873 65.3511 79.8952 65.4432 79.8584C65.5353 79.8215 65.655 79.8031 65.8023 79.8031C68.0119 79.8031 69.5218 79.9504 70.332 80.245C71.1422 80.5397 71.621 80.7606 71.7683 80.9079ZM42.9326 85.4929C41.9382 87.3711 40.9807 88.8258 40.0601 89.8569C39.1394 90.8881 38.3292 91.5326 37.6295 91.7904C37.7031 91.2011 38.0806 90.4186 38.7619 89.4426C39.4432 88.4667 40.3363 87.4816 41.4411 86.4873L42.9326 85.4929ZM52.434 63.7833C52.0657 62.3838 51.8724 61.1225 51.854 59.9993C51.8356 58.8761 51.9552 57.983 52.213 57.3201L52.434 56.9887L52.9312 57.0992C53.189 57.5042 53.3363 57.9738 53.3731 58.5078C53.4099 59.0418 53.3547 59.7323 53.2074 60.5793L53.0969 61.0765L52.5997 63.6728L52.434 63.7833Z" id="" fill="#FF7F7F" fill-rule="evenodd" stroke="none" />
  </g>
</svg>