<?xml version="1.0" encoding="utf-8"?>
<svg width="96px" height="107px" viewBox="0 0 96 107" version="1.1" xmlns:xlink="http://www.w3.org/1999/xlink" xmlns="http://www.w3.org/2000/svg">
  <g id="PPT">
    <path d="M95.7694 106.363L14 106.363L14 0L70.2165 0L95.7694 25.3245L95.7694 106.363Z" id="Shape-Copy-33" fill="#E6541D" fill-rule="evenodd" stroke="none" />
    <path d="M92.2753 28.0582L68 28.0582L68 4L92.2753 28.0582Z" id="Shape-Copy-28" fill="#FFA684" fill-rule="evenodd" stroke="none" />
    <path d="M3.999 16L51.001 16Q51.1975 16 51.393 16.0193Q51.5885 16.0385 51.7812 16.0768Q51.9738 16.1152 52.1618 16.1722Q52.3498 16.2292 52.5313 16.3044Q52.7129 16.3796 52.8861 16.4722Q53.0594 16.5648 53.2227 16.674Q53.3861 16.7831 53.5379 16.9077Q53.6898 17.0324 53.8287 17.1713Q53.9676 17.3102 54.0923 17.4621Q54.2169 17.6139 54.326 17.7773Q54.4352 17.9406 54.5278 18.1139Q54.6204 18.2871 54.6956 18.4686Q54.7708 18.6502 54.8278 18.8382Q54.8848 19.0262 54.9232 19.2188Q54.9615 19.4115 54.9807 19.607Q55 19.8025 55 19.999L55 40.001Q55 40.1975 54.9807 40.393Q54.9615 40.5885 54.9232 40.7812Q54.8848 40.9739 54.8278 41.1618Q54.7708 41.3498 54.6956 41.5313Q54.6204 41.7129 54.5278 41.8861Q54.4352 42.0594 54.326 42.2227Q54.2169 42.3861 54.0923 42.5379Q53.9676 42.6898 53.8287 42.8287Q53.6898 42.9676 53.5379 43.0923Q53.3861 43.2169 53.2227 43.326Q53.0594 43.4352 52.8861 43.5278Q52.7129 43.6204 52.5313 43.6956Q52.3498 43.7708 52.1618 43.8278Q51.9738 43.8848 51.7812 43.9232Q51.5885 43.9615 51.393 43.9807Q51.1975 44 51.001 44L3.999 44Q3.80254 44 3.60703 43.9807Q3.41152 43.9615 3.21883 43.9232Q3.02615 43.8848 2.83815 43.8278Q2.65015 43.7708 2.46865 43.6956Q2.28715 43.6204 2.11388 43.5278Q1.94062 43.4352 1.77727 43.326Q1.61393 43.2169 1.46206 43.0923Q1.3102 42.9676 1.17128 42.8287Q1.03236 42.6898 0.907731 42.5379Q0.783099 42.3861 0.673953 42.2227Q0.564807 42.0594 0.472197 41.8861Q0.379587 41.7128 0.304406 41.5313Q0.229224 41.3498 0.172196 41.1618Q0.115167 40.9739 0.0768396 40.7812Q0.0385126 40.5885 0.0192563 40.393Q0 40.1975 0 40.001L0 19.999Q0 19.8025 0.0192563 19.607Q0.0385126 19.4115 0.0768396 19.2188Q0.115167 19.0262 0.172196 18.8382Q0.229224 18.6502 0.304406 18.4686Q0.379587 18.2871 0.472197 18.1139Q0.564807 17.9406 0.673953 17.7773Q0.783099 17.6139 0.907731 17.4621Q1.03236 17.3102 1.17128 17.1713Q1.3102 17.0324 1.46206 16.9077Q1.61393 16.7831 1.77727 16.674Q1.94062 16.5648 2.11388 16.4722Q2.28715 16.3796 2.46865 16.3044Q2.65015 16.2292 2.83815 16.1722Q3.02615 16.1152 3.21883 16.0768Q3.41152 16.0385 3.60703 16.0193Q3.80254 16 3.999 16Z" id="Rectangle-5-Copy-26" fill="#BA3C0D" fill-rule="evenodd" stroke="none" />
    <g id="PPT" fill="#FFA684" transform="translate(11 19)">
      <path d="M3.7793 12.8896L3.7793 17.3984L1.14258 17.3984L1.14258 4.60156L6.13477 4.60156Q7.57617 4.60156 8.67041 5.12891Q9.76465 5.65625 10.3535 6.62744Q10.9424 7.59863 10.9424 8.83789Q10.9424 10.7188 9.65479 11.8042Q8.36719 12.8896 6.09082 12.8896L3.7793 12.8896ZM14.9576 12.8896L14.9576 17.3984L12.3209 17.3984L12.3209 4.60156L17.3131 4.60156Q18.7545 4.60156 19.8488 5.12891Q20.943 5.65625 21.5319 6.62744Q22.1207 7.59863 22.1207 8.83789Q22.1207 10.7188 20.8331 11.8042Q19.5455 12.8896 17.2692 12.8896L14.9576 12.8896ZM29.2122 6.7373L33.1321 6.7373L33.1321 4.60156L22.7083 4.60156L22.7083 6.7373L26.5755 6.7373L26.5755 17.3984L29.2122 17.3984L29.2122 6.7373ZM3.7793 10.7539L6.13477 10.7539Q7.18066 10.7539 7.72998 10.2617Q8.2793 9.76953 8.2793 8.85547Q8.2793 7.91504 7.72559 7.33496Q7.17187 6.75488 6.19629 6.7373L3.7793 6.7373L3.7793 10.7539ZM14.9576 10.7539L17.3131 10.7539Q18.359 10.7539 18.9083 10.2617Q19.4576 9.76953 19.4576 8.85547Q19.4576 7.91504 18.9039 7.33496Q18.3502 6.75488 17.3746 6.7373L14.9576 6.7373L14.9576 10.7539Z" />
    </g>
    <path d="M73 69.9961L57.0039 69.9961L57.0039 54C59.207 54 61.2812 54.416 63.2266 55.248C65.1719 56.0801 66.8652 57.2226 68.3066 58.6758C69.7481 60.1289 70.8906 61.8223 71.7344 63.7559C72.5781 65.6895 73 67.7695 73 69.9961ZM68.9922 74.0039C68.9922 75.3867 68.8223 76.7226 68.4824 78.0117C68.1426 79.3008 67.6621 80.5195 67.041 81.668C66.4199 82.8164 65.6699 83.8652 64.791 84.8145C63.9121 85.7637 62.9336 86.6016 61.8555 87.3281L54.1563 74.0039L68.9922 74.0039ZM52.9961 90C51.5898 90 50.2422 89.8301 48.9531 89.4902C47.6641 89.1504 46.4512 88.6641 45.3145 88.0313C44.1777 87.3984 43.1289 86.6426 42.168 85.7637C41.207 84.8848 40.3633 83.918 39.6367 82.8633L52.6445 75.3398L60.0977 88.3125C59.043 88.8516 57.9121 89.2676 56.7051 89.5605C55.498 89.8535 54.2617 90 52.9961 90ZM37 74.0039C37 71.7773 37.416 69.6914 38.248 67.7461C39.0801 65.8008 40.2226 64.1074 41.6758 62.666C43.1289 61.2246 44.8223 60.082 46.7559 59.2383C48.6895 58.3945 50.7695 57.9727 52.9961 57.9727L52.9961 72.8438L38.6523 81.1055C38.1133 80.0508 37.7031 78.9199 37.4219 77.7129C37.1406 76.5059 37 75.2695 37 74.0039Z" id="" fill="#FFA684" fill-rule="evenodd" stroke="none" />
  </g>
</svg>