<?xml version="1.0" encoding="utf-8"?>
<svg width="96px" height="107px" viewBox="0 0 96 107" version="1.1" xmlns:xlink="http://www.w3.org/1999/xlink" xmlns="http://www.w3.org/2000/svg">
  <g id="Microsoft-Publisher">
    <path d="M95.7694 106.363L14 106.363L14 0L70.2165 0L95.7694 25.3245L95.7694 106.363Z" id="Shape-Copy-326" fill="#00BF77" fill-rule="evenodd" stroke="none" />
    <path d="M92.2753 28.0582L68 28.0582L68 4L92.2753 28.0582Z" id="Shape-Copy-325" fill="#7DFFCE" fill-rule="evenodd" stroke="none" />
    <path d="M3.999 16L51.001 16Q51.1975 16 51.393 16.0193Q51.5885 16.0385 51.7812 16.0768Q51.9738 16.1152 52.1618 16.1722Q52.3498 16.2292 52.5313 16.3044Q52.7129 16.3796 52.8861 16.4722Q53.0594 16.5648 53.2227 16.674Q53.3861 16.7831 53.5379 16.9077Q53.6898 17.0324 53.8287 17.1713Q53.9676 17.3102 54.0923 17.4621Q54.2169 17.6139 54.326 17.7773Q54.4352 17.9406 54.5278 18.1139Q54.6204 18.2871 54.6956 18.4686Q54.7708 18.6502 54.8278 18.8382Q54.8848 19.0262 54.9232 19.2188Q54.9615 19.4115 54.9807 19.607Q55 19.8025 55 19.999L55 40.001Q55 40.1975 54.9807 40.393Q54.9615 40.5885 54.9232 40.7812Q54.8848 40.9739 54.8278 41.1618Q54.7708 41.3498 54.6956 41.5313Q54.6204 41.7129 54.5278 41.8861Q54.4352 42.0594 54.326 42.2227Q54.2169 42.3861 54.0923 42.5379Q53.9676 42.6898 53.8287 42.8287Q53.6898 42.9676 53.5379 43.0923Q53.3861 43.2169 53.2227 43.326Q53.0594 43.4352 52.8861 43.5278Q52.7129 43.6204 52.5313 43.6956Q52.3498 43.7708 52.1618 43.8278Q51.9738 43.8848 51.7812 43.9232Q51.5885 43.9615 51.393 43.9807Q51.1975 44 51.001 44L3.999 44Q3.80254 44 3.60703 43.9807Q3.41152 43.9615 3.21883 43.9232Q3.02615 43.8848 2.83815 43.8278Q2.65015 43.7708 2.46865 43.6956Q2.28715 43.6204 2.11388 43.5278Q1.94062 43.4352 1.77727 43.326Q1.61393 43.2169 1.46206 43.0923Q1.3102 42.9676 1.17128 42.8287Q1.03236 42.6898 0.907731 42.5379Q0.783099 42.3861 0.673953 42.2227Q0.564807 42.0594 0.472197 41.8861Q0.379587 41.7128 0.304406 41.5313Q0.229224 41.3498 0.172196 41.1618Q0.115167 40.9739 0.0768396 40.7812Q0.0385126 40.5885 0.0192563 40.393Q0 40.1975 0 40.001L0 19.999Q0 19.8025 0.0192563 19.607Q0.0385126 19.4115 0.0768396 19.2188Q0.115167 19.0262 0.172196 18.8382Q0.229224 18.6502 0.304406 18.4686Q0.379587 18.2871 0.472197 18.1139Q0.564807 17.9406 0.673953 17.7773Q0.783099 17.6139 0.907731 17.4621Q1.03236 17.3102 1.17128 17.1713Q1.3102 17.0324 1.46206 16.9077Q1.61393 16.7831 1.77727 16.674Q1.94062 16.5648 2.11388 16.4722Q2.28715 16.3796 2.46865 16.3044Q2.65015 16.2292 2.83815 16.1722Q3.02615 16.1152 3.21883 16.0768Q3.41152 16.0385 3.60703 16.0193Q3.80254 16 3.999 16Z" id="Rectangle-5-Copy-270" fill="#0D6254" fill-rule="evenodd" stroke="none" />
    <path d="M14.5693 31.7417L14.5693 36L12.0791 36L12.0791 23.9141L16.7939 23.9141C17.7015 23.9141 18.4998 24.0801 19.1887 24.4121C19.8777 24.7441 20.4076 25.2159 20.7783 25.8274C21.1491 26.4389 21.3345 27.1348 21.3345 27.915C21.3345 29.0993 20.9291 30.0331 20.1184 30.7166C19.3077 31.4 18.1857 31.7417 16.7524 31.7417L14.5693 31.7417ZM14.5693 29.7246L16.7939 29.7246C17.4525 29.7246 17.9547 29.5697 18.3005 29.2598C18.6464 28.9499 18.8193 28.5072 18.8193 27.9316C18.8193 27.3395 18.645 26.8608 18.2964 26.4956C17.9478 26.1304 17.4663 25.9422 16.8521 25.9312L14.5693 25.9312L14.5693 29.7246ZM31.7599 23.9141L31.7599 31.8745C31.7599 33.1971 31.3462 34.243 30.5189 35.0122C29.6916 35.7814 28.5613 36.166 27.1281 36.166C25.7169 36.166 24.5963 35.7925 23.7662 35.0454C22.9362 34.2983 22.5128 33.2718 22.4962 31.9658L22.4962 23.9141L24.9865 23.9141L24.9865 31.8911C24.9865 32.6825 25.176 33.2594 25.5551 33.6218C25.9341 33.9843 26.4585 34.1655 27.1281 34.1655C28.5281 34.1655 29.2392 33.4295 29.2614 31.9575L29.2614 23.9141L31.7599 23.9141ZM33.3699 36L33.3699 23.9141L37.6033 23.9141C39.0698 23.9141 40.1821 24.1949 40.9402 24.7566C41.6983 25.3183 42.0774 26.1414 42.0774 27.2261C42.0774 27.8182 41.9252 28.3398 41.6209 28.7908C41.3165 29.2418 40.8932 29.5724 40.3508 29.7827C40.9706 29.9377 41.459 30.2503 41.8159 30.7207C42.1729 31.1911 42.3513 31.7666 42.3513 32.4473C42.3513 33.6094 41.9806 34.4893 41.239 35.0869C40.4975 35.6846 39.4405 35.9889 38.0681 36L33.3699 36ZM35.8601 30.7373L35.8601 33.9995L37.9934 33.9995C38.58 33.9995 39.0379 33.8598 39.3672 33.5803C39.6965 33.3009 39.8611 32.9149 39.8611 32.4224C39.8611 31.3156 39.2883 30.7539 38.1428 30.7373L35.8601 30.7373ZM35.8601 28.9775L37.7029 28.9775C38.9591 28.9554 39.5872 28.4546 39.5872 27.4751C39.5872 26.9272 39.4281 26.533 39.1099 26.2922C38.7917 26.0515 38.2895 25.9312 37.6033 25.9312L35.8601 25.9312L35.8601 28.9775Z" id="PUB" fill="#7DFFCE" fill-rule="evenodd" stroke="none" />
    <g id="P" fill="#7DFFCE" transform="translate(43 50)">
      <path d="M7.55859 25.2793L7.55859 34.2969L2.28516 34.2969L2.28516 8.70313L12.2695 8.70313Q15.1523 8.70313 17.3408 9.75781Q19.5293 10.8125 20.707 12.7549Q21.8848 14.6973 21.8848 17.1758Q21.8848 20.9375 19.3096 23.1084Q16.7344 25.2793 12.1816 25.2793L7.55859 25.2793ZM7.55859 21.0078L12.2695 21.0078Q14.3613 21.0078 15.46 20.0234Q16.5586 19.0391 16.5586 17.2109Q16.5586 15.3301 15.4512 14.1699Q14.3437 13.0098 12.3926 12.9746L7.55859 12.9746L7.55859 21.0078Z" />
    </g>
  </g>
</svg>