<?xml version="1.0" encoding="utf-8"?>
<svg width="95.76941px" height="106.36277px" viewBox="0 0 95.76941 106.36277" version="1.1" xmlns:xlink="http://www.w3.org/1999/xlink" xmlns="http://www.w3.org/2000/svg">
  <g id="MKV">
    <path d="M95.7694 106.363L14 106.363L14 0L70.2165 0L95.7694 25.3245L95.7694 106.363Z" id="Shape-Copy-93" fill="#009EDB" fill-rule="evenodd" stroke="none" />
    <path d="M92.2753 28.0582L68 28.0582L68 4L92.2753 28.0582Z" id="Shape-Copy-92" fill="#00739F" fill-rule="evenodd" stroke="none" />
    <path d="M3.999 16L51.001 16Q51.1975 16 51.393 16.0193Q51.5885 16.0385 51.7812 16.0768Q51.9738 16.1152 52.1618 16.1722Q52.3498 16.2292 52.5313 16.3044Q52.7129 16.3796 52.8861 16.4722Q53.0594 16.5648 53.2227 16.674Q53.3861 16.7831 53.5379 16.9077Q53.6898 17.0324 53.8287 17.1713Q53.9676 17.3102 54.0923 17.4621Q54.2169 17.6139 54.326 17.7773Q54.4352 17.9406 54.5278 18.1139Q54.6204 18.2871 54.6956 18.4686Q54.7708 18.6502 54.8278 18.8382Q54.8848 19.0262 54.9232 19.2188Q54.9615 19.4115 54.9807 19.607Q55 19.8025 55 19.999L55 40.001Q55 40.1975 54.9807 40.393Q54.9615 40.5885 54.9232 40.7812Q54.8848 40.9739 54.8278 41.1618Q54.7708 41.3498 54.6956 41.5313Q54.6204 41.7129 54.5278 41.8861Q54.4352 42.0594 54.326 42.2227Q54.2169 42.3861 54.0923 42.5379Q53.9676 42.6898 53.8287 42.8287Q53.6898 42.9676 53.5379 43.0923Q53.3861 43.2169 53.2227 43.326Q53.0594 43.4352 52.8861 43.5278Q52.7129 43.6204 52.5313 43.6956Q52.3498 43.7708 52.1618 43.8278Q51.9738 43.8848 51.7812 43.9232Q51.5885 43.9615 51.393 43.9807Q51.1975 44 51.001 44L3.999 44Q3.80254 44 3.60703 43.9807Q3.41152 43.9615 3.21883 43.9232Q3.02615 43.8848 2.83815 43.8278Q2.65015 43.7708 2.46865 43.6956Q2.28715 43.6204 2.11388 43.5278Q1.94062 43.4352 1.77727 43.326Q1.61393 43.2169 1.46206 43.0923Q1.3102 42.9676 1.17128 42.8287Q1.03236 42.6898 0.907731 42.5379Q0.783099 42.3861 0.673953 42.2227Q0.564807 42.0594 0.472197 41.8861Q0.379587 41.7128 0.304406 41.5313Q0.229224 41.3498 0.172196 41.1618Q0.115167 40.9739 0.0768396 40.7812Q0.0385126 40.5885 0.0192563 40.393Q0 40.1975 0 40.001L0 19.999Q0 19.8025 0.0192563 19.607Q0.0385126 19.4115 0.0768396 19.2188Q0.115167 19.0262 0.172196 18.8382Q0.229224 18.6502 0.304406 18.4686Q0.379587 18.2871 0.472197 18.1139Q0.564807 17.9406 0.673953 17.7773Q0.783099 17.6139 0.907731 17.4621Q1.03236 17.3102 1.17128 17.1713Q1.3102 17.0324 1.46206 16.9077Q1.61393 16.7831 1.77727 16.674Q1.94062 16.5648 2.11388 16.4722Q2.28715 16.3796 2.46865 16.3044Q2.65015 16.2292 2.83815 16.1722Q3.02615 16.1152 3.21883 16.0768Q3.41152 16.0385 3.60703 16.0193Q3.80254 16 3.999 16Z" id="Rectangle-5-Copy-74" fill="#00739F" fill-rule="evenodd" stroke="none" />
    <g id="SF" fill="#63C6EB" transform="translate(7 20)">
      <path d="M7.25098 12.894Q7.77832 13.2939 7.77832 14.041Q7.77832 14.7266 7.25098 15.1089Q6.72363 15.4912 5.7832 15.4912Q3.25195 15.4912 3.25195 13.373L0.606445 13.373Q0.606445 14.6123 1.24365 15.5527Q1.88086 16.4932 3.09375 17.0337Q4.30664 17.5742 5.7832 17.5742Q7.91016 17.5742 9.16699 16.6294Q10.4238 15.6846 10.4238 14.0234Q10.4238 12.5293 9.39551 11.5273Q8.36719 10.5254 6.11719 9.84863Q4.89551 9.47949 4.26709 9.05762Q3.63867 8.63574 3.63867 8.01172Q3.63867 7.34375 4.1748 6.93506Q4.71094 6.52637 5.67773 6.52637Q6.67969 6.52637 7.2334 7.01416Q7.78711 7.50195 7.78711 8.38086L10.4238 8.38086Q10.4238 7.22949 9.83057 6.32422Q9.2373 5.41895 8.16504 4.92236Q7.09277 4.42578 5.72168 4.42578Q4.35938 4.42578 3.26514 4.88281Q2.1709 5.33984 1.58643 6.15283Q1.00195 6.96582 1.00195 8.00293Q1.00195 9.99805 3.18164 11.1758Q3.98144 11.6064 5.35254 12.0503Q6.72363 12.4941 7.25098 12.894ZM14.4127 12.1689L19.4752 12.1689L19.4752 10.042L14.4127 10.042L14.4127 6.7373L20.108 6.7373L20.108 4.60156L11.776 4.60156L11.776 17.3984L14.4127 17.3984L14.4127 12.1689Z" />
    </g>
    <g id="" fill="#00739F" transform="translate(31 49)">
      <path d="M3.17045 43.2727L3.17045 36.7273L32.625 36.7273L32.625 43.2727L3.17045 43.2727ZM3.17045 34.2727L3.17045 27.7273L32.625 27.7273L32.625 34.2727L3.17045 34.2727ZM3.17045 25.2727L3.17045 18.7273L32.625 18.7273L32.625 25.2727L3.17045 25.2727ZM3.17045 16.2727L3.17045 9.72727L32.625 9.72727L32.625 16.2727L3.17045 16.2727ZM3.17045 7.27272L3.17045 0.727268L32.625 0.727268L32.625 7.27272L3.17045 7.27272Z" />
    </g>
  </g>
</svg>